<?xml version="1.0" standalone="no"?> <!DOCTYPE svg PUBLIC "-//W3C//DTD SVG 1.0//EN" "http://www.w3.org/TR/2001/REC-SVG-20010904/DTD/svg10.dtd" > <svg xmlns="http://www.w3.org/2000/svg" width="100%" height="100%">
<defs >
<font id="avenirnextltprodemi" horiz-adv-x="947" ><font-face
    font-family="AvenirNext LT Pro Regular"
    units-per-em="2048"
    panose-1="2 11 7 4 2 2 2 2 2 4"
    ascent="1548"
    descent="-500"
    alphabetic="0" />
<missing-glyph horiz-adv-x="1048" d="M455 240H569V377H455V240ZM461 479H555Q555 586 567 627Q579 666 655 733Q731 802 757 856T784 979Q784 1099 713 1173T530 1247Q415 1247 341 1177T254 967L356 950Q368 1050 412 1097T524 1145Q588 1145 634 1095T680
971Q680 930 661 896T578 801Q515 740 483 680Q457 629 457 514L461 479ZM946 102H102V1366H946V102ZM1049 1470H0V0H1049V1470Z" />
<glyph unicode=" " glyph-name="space" horiz-adv-x="512" />
<glyph unicode="!" glyph-name="exclam" horiz-adv-x="696" d="M471 1450V455H225V1450H471ZM184 143Q184 209 232 256T348 303Q415 303 463 258T512 147T464 35T348 -12Q282 -12 233 33T184 143Z" />
<glyph unicode="&quot;" glyph-name="quotedbl" horiz-adv-x="940" d="M184 909V1450H393V909H184ZM547 909V1450H756V909H547Z" />
<glyph unicode="#" glyph-name="numbersign" horiz-adv-x="1212" d="M219 0L281 428H96V600H303L340 850H156V1022H362L424 1450H604L543 1022H754L815 1450H993L932 1022H1116V850H907L872 600H1057V428H852L788 0H610L672 428H459L397 0H219ZM729 850H518L483
600H694L729 850Z" />
<glyph unicode="$" glyph-name="dollar" horiz-adv-x="1249" d="M676 1610V1475Q793 1473 907 1436T1102 1329L936 1157Q889 1208 819 1237T676 1266V852Q727 836 766 822T853 785T936 739T1006 682T1063 610T1098 522T1112 414Q1112 277 1050 177T890 29T676
-23V-170H565V-23Q269 -11 84 168L264 340Q320 275 404 232T565 188V643Q486 665 428 687T312 745T218 822T160 927T137 1065Q137 1154 173 1229T269 1354T405 1435T565 1470V1610H676ZM565 881V1266Q487 1257 435 1209T383 1077Q383 998 431 952T565 881ZM676
610V188Q762 193 814 251T866 399Q866 483 817 531T676 610Z" />
<glyph unicode="%" glyph-name="percent" horiz-adv-x="1904" d="M1061 198T1061 356T1172 625T1442 737T1711 626T1823 356T1712 87T1442 -25T1173 86ZM1626 356Q1626 433 1573 487T1442 541T1311 487T1257 356T1311 226T1442 172Q1518 172 1572 226T1626 356ZM82
936T82 1094T193 1363T463 1475T732 1364T844 1094T733 825T463 713T194 824ZM647 1094Q647 1170 594 1224T463 1278T333 1225T279 1094T332 963T463 909T593 963T647 1094ZM440 12L1292 1516L1462 1438L610 -66L440 12Z" />
<glyph unicode="&amp;" glyph-name="ampersand" horiz-adv-x="1517" d="M1458 766L1167 346L1505 0H1178L1018 166Q939 73 836 22T584 -29Q487 -29 400 -2T245 78T138 211T98 393Q98 470 124 537T196 654T295 740T414 805Q258 963 258 1130Q258 1219 293 1289T388
1402T518 1465T668 1487Q776 1487 865 1450T1011 1331T1069 1135Q1069 1003 988 908T772 750L1010 502L1178 766H1458ZM744 1288T672 1288T551 1242T502 1126Q502 1011 631 895Q724 934 782 992T840 1126Q840 1193 792 1240ZM862 326L553 647Q461 613 407 557T352
403Q352 302 426 239T592 176Q679 176 744 213T862 326Z" />
<glyph unicode="&apos;" glyph-name="quotesingle" horiz-adv-x="577" d="M184 909V1450H393V909H184Z" />
<glyph unicode="(" glyph-name="parenleft" horiz-adv-x="675" d="M74 836T74 590T152 111T373 -319L545 -207Q421 -36 353 171T285 590Q285 800 353 1007T545 1386L373 1499Q230 1302 152 1069Z" />
<glyph unicode=")" glyph-name="parenright" horiz-adv-x="675" d="M602 836T602 590T524 112T303 -319L131 -207Q255 -36 323 171T391 590Q391 800 323 1007T131 1386L303 1499Q446 1301 524 1069Z" />
<glyph unicode="*" glyph-name="asterisk" horiz-adv-x="948" d="M561 1450V1159L838 1249L891 1085L612 995L788 756L647 653L471 895L299 659L162 764L338 995L57 1092L111 1255L389 1159V1450H561Z" />
<glyph unicode="+" glyph-name="plus" horiz-adv-x="1363" d="M127 725H578V1176H786V725H1237V516H786V66H578V516H127V725Z" />
<glyph unicode="," glyph-name="comma" horiz-adv-x="532" d="M49 -258L193 283H430L256 -258H49Z" />
<glyph unicode="-" glyph-name="hyphen" horiz-adv-x="655" d="M573 608V399H82V608H573Z" />
<glyph unicode="." glyph-name="period" horiz-adv-x="532" d="M102 143Q102 209 150 256T266 303Q333 303 381 258T430 147T382 35T266 -12Q200 -12 151 33T102 143Z" />
<glyph unicode="/" glyph-name="slash" horiz-adv-x="796" d="M791 1487L152 -98L-18 -37L621 1552L791 1487Z" />
<glyph unicode="0" glyph-name="zero" horiz-adv-x="1249" d="M1137 1080T1137 725T1004 167T627 -37Q382 -37 248 166T113 725T247 1283T627 1487Q870 1487 1003 1284ZM885 656T885 725T880 861T857 1008T813 1145T738 1243T627 1282T516 1243T439 1146T394 1008T371
862T365 725Q365 669 369 613T384 492T413 372T460 271T531 199T627 172Q690 172 738 211T813 307T857 443T879 589Z" />
<glyph unicode="1" glyph-name="one" horiz-adv-x="1249" d="M571 0V1151L285 915L141 1085L594 1450H817V0H571Z" />
<glyph unicode="2" glyph-name="two" horiz-adv-x="1249" d="M141 0V225L700 774Q774 845 811 912T848 1059Q848 1159 783 1220T616 1282T450 1213T371 1034L131 1071Q153 1253 288 1370T621 1487Q716 1487 802 1460T956 1380T1064 1246T1104 1063Q1104 935 1044
834T870 625L453 225H1106V0H141Z" />
<glyph unicode="3" glyph-name="three" horiz-adv-x="1249" d="M434 657V854H500Q560 854 610 863T708 896T782 964T809 1073Q809 1168 742 1225T580 1282Q493 1282 432 1232T348 1096L117 1155Q155 1302 286 1394T590 1487Q720 1487 824 1443T992 1308T1057 1090Q1057
972 986 882T797 762V758Q931 731 1013 637T1096 410Q1096 323 1067 249T989 123T875 34T737 -20T590 -37Q397 -37 258 47T63 305L293 377Q321 286 396 229T582 172Q632 172 677 185T762 226T824 301T848 412Q848 466 826 509T769 580T686 625T592 650T496 657H434Z"
/>
<glyph unicode="4" glyph-name="four" horiz-adv-x="1249" d="M713 0V301H43V518L659 1450H954V512H1157V301H954V0H713ZM713 512V1161H709L297 512H713Z" />
<glyph unicode="5" glyph-name="five" horiz-adv-x="1249" d="M1034 1450V1229H442L428 915Q494 934 598 934Q818 934 958 812T1098 475Q1098 319 1026 201T834 23T569 -37Q391 -37 265 47T80 281L303 362Q334 275 406 224T575 172Q689 172 767 246T846 449Q846
514 827 564T778 647T704 699T617 728T522 737Q441 737 346 714T184 657L209 1450H1034Z" />
<glyph unicode="6" glyph-name="six" horiz-adv-x="1249" d="M604 1450H903L532 913L535 911Q591 936 688 936Q881 936 1016 802T1151 471Q1151 321 1081 204T891 25T623 -37Q396 -37 244 106T92 461Q92 577 127 670T242 889L604 1450ZM342 455Q342 337 419 255T621
172T822 251T899 459Q899 583 823 662T625 741Q500 741 421 662T342 455Z" />
<glyph unicode="7" glyph-name="seven" horiz-adv-x="1249" d="M104 1229V1450H1090V1225L510 0H221L831 1229H104Z" />
<glyph unicode="8" glyph-name="eight" horiz-adv-x="1249" d="M625 1487Q821 1487 952 1380T1083 1094Q1083 972 1022 886T858 766V762Q975 733 1052 637T1130 410Q1130 270 1061 167T879 14T625 -37Q483 -37 370 13T188 167T119 410Q119 544 198 638T391 762V766Q288
804 227 883T166 1083T228 1296T394 1438T625 1487ZM625 1284Q533 1284 475 1228T416 1079Q416 990 474 929T625 868Q712 868 774 930T836 1079Q836 1170 774 1227T625 1284ZM625 659Q517 659 445 590T373 412Q373 300 443 235T625 170Q734 170 804 235T874 412Q874
518 802 588T625 659Z" />
<glyph unicode="9" glyph-name="nine" horiz-adv-x="1249" d="M643 0H344L717 539L715 541Q657 514 559 514Q366 514 231 648T96 979Q96 1205 247 1346T625 1487T1003 1344T1155 989Q1155 873 1120 780T1006 561L643 0ZM905 995Q905 1113 828 1197T627 1282T426
1201T348 991Q348 867 424 788T623 709Q747 709 826 788T905 995Z" />
<glyph unicode=":" glyph-name="colon" horiz-adv-x="614" d="M143 143Q143 209 191 256T307 303Q374 303 422 258T471 147T423 35T307 -12Q241 -12 192 33T143 143ZM143 836Q143 902 191 948T307 995Q374 995 422 950T471 840Q471 774 423 727T307 680Q241 680
192 725T143 836Z" />
<glyph unicode=";" glyph-name="semicolon" horiz-adv-x="614" d="M82 -258L225 283H475L301 -258H82ZM143 838Q143 904 191 950T307 997Q374 997 422 952T471 842Q471 776 423 729T307 682Q241 682 192 727T143 838Z" />
<glyph unicode="&lt;" glyph-name="less" horiz-adv-x="1363" d="M1200 86L164 547V694L1200 1155V930L508 621L1200 311V86Z" />
<glyph unicode="=" glyph-name="equal" horiz-adv-x="1363" d="M164 909H1200V700H164V909ZM164 541H1200V332H164V541Z" />
<glyph unicode="&gt;" glyph-name="greater" horiz-adv-x="1363" d="M164 1155L1200 694V547L164 86V311L856 621L164 930V1155Z" />
<glyph unicode="?" glyph-name="question" horiz-adv-x="1062" d="M672 428H430V506Q430 604 459 667T565 805L657 893Q702 934 727 976T752 1075Q752 1157 700 1210T559 1264Q468 1264 411 1201T350 1051L98 1073Q121 1265 252 1376T575 1487Q695 1487 793 1443T951
1308T1012 1092Q1012 1041 1002 998T977 922T933 854T878 794T807 729Q723 655 698 611T672 481V428ZM389 143Q389 209 437 256T553 303Q620 303 668 258T717 147T669 35T553 -12Q487 -12 438 33T389 143Z" />
<glyph unicode="@" glyph-name="at" horiz-adv-x="1638" d="M844 956Q783 956 736 908T666 792T643 655Q643 617 652 585T693 525T774 498Q827 498 868 525T933 596T967 686T979 776Q979 811 973 841T952 898T910 940T844 956ZM1372 334L1485 211Q1368 87 1203
25T848 -37Q617 -37 439 60T163 330T66 723Q66 883 128 1025T295 1269T544 1428T848 1487Q961 1487 1066 1462T1264 1382T1425 1252T1533 1067T1573 829Q1573 710 1540 613T1449 455T1320 361T1167 328T1037 367T987 465H977Q942 408 877 368T727 328Q591 328 514
419T436 659Q436 776 485 882T628 1056T838 1124Q914 1124 968 1093T1038 1012H1040L1057 1094H1239L1159 707Q1141 596 1141 578Q1141 496 1206 496Q1287 496 1339 583T1391 813Q1391 1054 1240 1187T844 1321Q674 1321 541 1242T336 1027T264 721Q264 453 431
293T866 133Q1025 133 1145 184T1372 334Z" />
<glyph unicode="A" glyph-name="A" horiz-adv-x="1445" d="M-16 0L614 1450H838L1462 0H1167L1032 332H403L272 0H-16ZM492 553H942L719 1143L492 553Z" />
<glyph unicode="B" glyph-name="B" horiz-adv-x="1325" d="M160 0V1450H725Q811 1450 887 1430T1028 1368T1131 1253T1169 1085Q1169 966 1102 885T918 768V764Q1058 745 1144 655T1231 422Q1231 330 1200 257T1117 137T994 58T845 13T682 0H160ZM418 1237V860H647Q775
860 843 911T911 1057Q911 1152 842 1194T625 1237H418ZM418 639V217H649Q973 217 973 434Q973 545 897 592T659 639H418Z" />
<glyph unicode="C" glyph-name="C" horiz-adv-x="1425" d="M1403 1266L1206 1110Q1152 1184 1062 1222T877 1260Q656 1260 516 1108T375 729Q375 491 509 343T866 195Q980 195 1071 239T1219 362L1425 217Q1223 -37 864 -37Q640 -37 464 59T189 331T90 729Q90
900 150 1043T315 1283T565 1433T877 1487Q1029 1487 1175 1430T1403 1266Z" />
<glyph unicode="D" glyph-name="D" horiz-adv-x="1564" d="M160 0V1450H674Q793 1450 903 1428T1119 1351T1302 1216T1427 1009T1475 725Q1475 619 1451 525T1383 359T1279 227T1149 126T999 56T838 14T674 0H160ZM418 225H633Q718 225 794 239T946 289T1076 380T1164
523T1198 725Q1198 845 1164 936T1077 1082T946 1171T795 1217T633 1229H418V225Z" />
<glyph unicode="E" glyph-name="E" horiz-adv-x="1249" d="M160 0V1450H1120V1225H418V856H1083V639H418V229H1157V0H160Z" />
<glyph unicode="F" glyph-name="F" horiz-adv-x="1173" d="M160 0V1450H1096V1225H418V827H1057V610H418V0H160Z" />
<glyph unicode="G" glyph-name="G" horiz-adv-x="1583" d="M1430 827V76Q1194 -37 883 -37Q652 -37 472 59T191 330T90 729Q90 900 150 1043T315 1283T565 1433T877 1487Q1045 1487 1191 1438T1427 1305L1249 1112Q1192 1176 1092 1218T879 1260Q729 1260 614
1190T437 999T375 729Q375 493 515 344T891 195Q1058 195 1180 246V614H874V827H1430Z" />
<glyph unicode="H" glyph-name="H" horiz-adv-x="1513" d="M160 0V1450H418V864H1096V1450H1354V0H1096V643H418V0H160Z" />
<glyph unicode="I" glyph-name="I" horiz-adv-x="577" d="M160 0V1450H418V0H160Z" />
<glyph unicode="J" glyph-name="J" horiz-adv-x="1019" d="M872 1450V469Q872 399 862 335T823 200T747 80T620 -4T436 -37Q267 -37 159 48T10 283L248 350Q266 278 315 237T432 195Q486 195 522 215T578 274T606 362T614 477V1450H872Z" />
<glyph unicode="K" glyph-name="K" horiz-adv-x="1411" d="M160 0V1450H418V823H424L1030 1450H1378L700 780L1423 0H1061L424 727H418V0H160Z" />
<glyph unicode="L" glyph-name="L" horiz-adv-x="1046" d="M160 0V1450H418V229H1034V0H160Z" />
<glyph unicode="M" glyph-name="M" horiz-adv-x="1884" d="M160 0V1450H563L940 420H946L1319 1450H1724V0H1468V1165H1464L1024 0H844L410 1165H406V0H160Z" />
<glyph unicode="N" glyph-name="N" horiz-adv-x="1597" d="M160 0V1450H502L1176 365H1180V1450H1438V0H1110L422 1120H418V0H160Z" />
<glyph unicode="O" glyph-name="O" horiz-adv-x="1738" d="M90 729Q90 957 191 1130T467 1395T866 1487Q1092 1487 1269 1396T1547 1131T1649 729Q1649 506 1548 331T1269 60T866 -37Q701 -37 557 19T311 175T149 418T90 729ZM371 729Q371 496 509 346T868 195Q1089
195 1228 345T1368 729Q1368 957 1229 1108T868 1260Q722 1260 608 1190T432 999T371 729Z" />
<glyph unicode="P" glyph-name="P" horiz-adv-x="1249" d="M160 0V1450H633Q1180 1450 1180 1030Q1180 914 1136 829T1013 695T835 623T616 600H418V0H160ZM418 817H598Q920 817 920 1030Q920 1080 902 1117T856 1176T786 1211T701 1228T606 1233H418V817Z" />
<glyph unicode="Q" glyph-name="Q" horiz-adv-x="1744" d="M1722 209V0H848Q675 0 532 50T288 194T132 428T76 743Q76 906 135 1045T297 1281T543 1432T852 1487T1159 1433T1404 1281T1564 1045T1622 743Q1622 562 1548 427T1364 213V209H1722ZM852 1255Q641 1255
500 1110T358 743Q358 511 494 368T848 225Q1065 225 1203 369T1341 743Q1341 966 1206 1110T852 1255Z" />
<glyph unicode="R" glyph-name="R" horiz-adv-x="1288" d="M160 0V1450H664Q749 1450 824 1437T969 1392T1089 1313T1168 1195T1198 1034Q1198 880 1110 779T866 643L1253 0H942L606 614H418V0H160ZM418 825H629Q940 825 940 1036Q940 1092 915 1132T845 1194T753
1224T651 1233H418V825Z" />
<glyph unicode="S" glyph-name="S" horiz-adv-x="1175" d="M1067 1331L899 1147Q857 1201 783 1236T633 1272Q569 1272 513 1253T417 1187T377 1073Q377 1034 391 1003T426 952T486 912T560 881T653 850Q703 835 736 824T818 791T899 749T968 695T1026 625T1062
536T1077 426Q1077 313 1035 223T920 77T752 -8T549 -37Q403 -37 269 17T51 170L236 342Q288 270 376 226T553 182Q591 182 627 189T697 213T758 254T799 315T815 397Q815 440 798 474T754 532T683 576T597 611T495 645Q486 648 481 649Q419 669 374 687T277 740T192
815T137 920T115 1061Q115 1167 160 1251T282 1385T451 1461T645 1487Q760 1487 873 1447T1067 1331Z" />
<glyph unicode="T" glyph-name="T" horiz-adv-x="1163" d="M453 0V1225H8V1450H1155V1225H711V0H453Z" />
<glyph unicode="U" glyph-name="U" horiz-adv-x="1462" d="M1315 1450V532Q1315 361 1238 231T1029 32T731 -37T433 31T224 230T147 532V1450H406V543Q406 476 422 417T475 307T576 225T731 195Q803 195 860 215T953 269T1013 348T1047 442T1057 543V1450H1315Z" />
<glyph unicode="V" glyph-name="V" horiz-adv-x="1337" d="M553 0L-20 1450H268L668 334H676L1079 1450H1358L776 0H553Z" />
<glyph unicode="W" glyph-name="W" horiz-adv-x="2056" d="M436 0L12 1450H295L575 385H580L899 1450H1165L1479 385H1483L1769 1450H2044L1620 0H1370L1030 1087H1026L686 0H436Z" />
<glyph unicode="X" glyph-name="X" horiz-adv-x="1347" d="M8 0L510 774L59 1450H371L670 954L965 1450H1262L819 768L1339 0H1014L659 569L319 0H8Z" />
<glyph unicode="Y" glyph-name="Y" horiz-adv-x="1273" d="M510 0V629L-35 1450H281L645 840L1014 1450H1313L768 629V0H510Z" />
<glyph unicode="Z" glyph-name="Z" horiz-adv-x="1251" d="M72 0V233L860 1225H84V1450H1167V1217L375 229H1180V0H72Z" />
<glyph unicode="[" glyph-name="bracketleft" horiz-adv-x="675" d="M516 1499V1339H332V-160H516V-319H123V1499H516Z" />
<glyph unicode="\" glyph-name="backslash" horiz-adv-x="796" d="M6 1487L176 1552L815 -37L645 -98L6 1487Z" />
<glyph unicode="]" glyph-name="bracketright" horiz-adv-x="675" d="M160 -319V-160H344V1339H160V1499H553V-319H160Z" />
<glyph unicode="^" glyph-name="asciicircum" horiz-adv-x="1363" d="M383 702H141L598 1450H766L1223 702H981L680 1192L383 702Z" />
<glyph unicode="_" glyph-name="underscore" horiz-adv-x="1024" d="M1024 -154V-307H0V-154H1024Z" />
<glyph unicode="`" glyph-name="grave" horiz-adv-x="532" d="M160 1450L362 1155H170L-119 1450H160Z" />
<glyph unicode="a" glyph-name="a" horiz-adv-x="1126" d="M758 0V125H752Q713 59 631 17T446 -25Q396 -25 347 -16T249 17T162 74T102 161T78 281Q78 352 106 407T186 497T299 557T442 593T596 609T754 614V639Q754 726 690 772T528 819Q453 819 382 788T260
707L133 856Q215 931 324 971T549 1012Q651 1012 729 988T855 924T933 829T975 717T987 598V0H758ZM754 414V449H698Q324 449 324 285Q324 220 373 191T496 162Q620 162 687 229T754 414Z" />
<glyph unicode="b" glyph-name="b" horiz-adv-x="1300" d="M152 1548H397V858H403Q528 1012 733 1012Q871 1012 980 944T1150 758T1210 496T1153 233T984 43T727 -29Q622 -29 531 17T389 147H385V0H152V1548ZM961 437T961 496T943 610T891 710T802 783T678 811Q550
811 470 713T389 492Q389 413 423 342T524 224T678 176Q746 176 801 204T891 278T943 381Z" />
<glyph unicode="c" glyph-name="c" horiz-adv-x="999" d="M987 858L819 711Q790 753 733 780T616 807Q530 807 467 760T375 642T346 492Q346 433 363 378T414 277T503 204T625 176Q683 176 740 199T831 264L985 109Q924 43 829 7T623 -29Q514 -29 417 7T248 108T133
272T90 492Q90 647 161 767T352 949T616 1012Q726 1012 827 971T987 858Z" />
<glyph unicode="d" glyph-name="d" horiz-adv-x="1298" d="M1147 1548V0H913V147H909Q860 64 768 18T571 -29Q426 -29 315 42T146 233T88 496T148 757T318 943T565 1012Q772 1012 895 858H901V1548H1147ZM338 496Q338 437 356 381T407 279T496 204T621 176Q749
176 829 272T909 492T829 713T621 811Q530 811 464 764T368 646T338 496Z" />
<glyph unicode="e" glyph-name="e" horiz-adv-x="1175" d="M336 590H840Q840 692 781 759T608 827Q499 827 421 760T336 590ZM1085 479Q1085 436 1083 414H336Q343 310 425 241T616 172Q786 172 877 299L1040 168Q896 -29 618 -29Q386 -29 238 110T90 485Q90 641
158 762T344 947T610 1012Q824 1012 954 875T1085 479Z" />
<glyph unicode="f" glyph-name="f" horiz-adv-x="663" d="M186 0V786H0V983H186V1128Q186 1222 206 1298T270 1438T394 1537T584 1573Q657 1573 709 1559L692 1350Q647 1364 598 1364Q432 1364 432 1143V983H659V786H432V0H186Z" />
<glyph unicode="g" glyph-name="g" horiz-adv-x="1294" d="M913 983H1147V88Q1147 -186 1009 -339T592 -492Q467 -492 332 -449T104 -330L246 -139Q316 -206 406 -242T590 -279Q901 -279 901 59V131H897Q787 -16 575 -16Q432 -16 320 54T149 240T90 496Q90 639
147 755T315 942T571 1012Q678 1012 767 967T909 836H913V983ZM753 811T623 811T417 722T340 498Q340 374 417 280T621 186Q753 186 833 277T913 498Q913 629 833 720Z" />
<glyph unicode="h" glyph-name="h" horiz-adv-x="1196" d="M694 1012Q786 1012 858 979T972 888T1035 762T1057 614V0H811V541Q811 801 629 801Q519 801 458 723T397 537V0H152V1548H397V846H401Q433 913 512 962T694 1012Z" />
<glyph unicode="i" glyph-name="i" horiz-adv-x="548" d="M152 0V983H397V0H152ZM117 1257T117 1317T161 1420T272 1464Q340 1464 386 1422T432 1317T386 1212T272 1169Q206 1169 162 1213Z" />
<glyph unicode="j" glyph-name="j" horiz-adv-x="548" d="M152 983H397V-59Q397 -135 389 -195T356 -313T293 -408T190 -469T41 -492Q-16 -492 -70 -479L-49 -270Q-16 -279 18 -279Q60 -279 88 -263T129 -216T147 -151T152 -70V983ZM117 1257T117 1317T161 1420T272
1464Q340 1464 386 1422T432 1317T386 1212T272 1169Q206 1169 162 1213Z" />
<glyph unicode="k" glyph-name="k" horiz-adv-x="1112" d="M152 0V1548H397V569H403L776 983H1092L666 539L1118 0H793L403 504H397V0H152Z" />
<glyph unicode="l" glyph-name="l" horiz-adv-x="548" d="M152 0V1548H397V0H152Z" />
<glyph unicode="m" glyph-name="m" horiz-adv-x="1822" d="M1321 1012Q1413 1012 1484 979T1598 888T1662 762T1683 614V0H1438V545Q1438 807 1253 807Q1147 807 1092 726T1036 537V0H791V594Q791 689 745 748T608 807Q505 807 449 728T393 541V0H147V983H381V825H385Q420
905 499 958T690 1012Q904 1012 997 825Q1101 1012 1321 1012Z" />
<glyph unicode="n" glyph-name="n" horiz-adv-x="1191" d="M147 0V983H381V825H385Q419 903 502 957T690 1012Q782 1012 854 979T968 888T1031 762T1053 614V0H807V545Q807 807 623 807Q549 807 495 767T417 668T393 541V0H147Z" />
<glyph unicode="o" glyph-name="o" horiz-adv-x="1249" d="M90 496Q90 647 162 766T355 948T625 1012T894 948T1087 766T1159 496Q1159 344 1088 224T895 37T625 -29T355 37T162 223T90 496ZM340 496Q340 436 357 381T409 279T499 204T625 176T751 204T840 278T891
381T909 496T892 610T841 710T751 783T625 811T499 784T409 711T358 610T340 496Z" />
<glyph unicode="p" glyph-name="p" horiz-adv-x="1296" d="M147 983H383V846H389Q432 914 518 963T729 1012Q867 1012 976 944T1146 758T1206 496T1149 233T980 43T723 -29Q620 -29 533 14T397 131H393V-492H147V983ZM956 496Q956 576 926 646T830 763T674 811Q546
811 466 713T385 492Q385 413 419 342T520 224T674 176Q742 176 797 204T886 278T938 381T956 496Z" />
<glyph unicode="q" glyph-name="q" horiz-adv-x="1294" d="M1147 983V-492H901V131H897Q850 57 762 14T571 -29Q426 -29 315 42T146 233T88 496T148 757T318 943T565 1012Q689 1012 775 963T905 846H911V983H1147ZM338 496Q338 437 356 381T407 279T496 204T621
176Q749 176 829 272T909 492T829 713T621 811Q530 811 464 764T368 646T338 496Z" />
<glyph unicode="r" glyph-name="r" horiz-adv-x="745" d="M147 0V983H383V819H387Q428 906 504 959T674 1012Q709 1012 733 1006V780Q688 791 657 791Q594 791 545 770T469 719T423 650T399 582T393 526V0H147Z" />
<glyph unicode="s" glyph-name="s" horiz-adv-x="909" d="M846 862L686 721Q652 766 594 796T471 827Q405 827 359 801T313 721Q313 669 359 645T526 592Q576 580 615 567T700 529T774 476T824 401T844 299Q844 212 811 147T719 45T590 -11T434 -29Q318 -29 209
14T31 133L193 285Q235 230 301 196T444 162Q508 162 555 190T602 279Q602 303 592 321T567 353T520 379T458 399T377 420Q328 432 290 444T212 480T146 531T103 602T86 698Q86 777 119 839T209 938T334 993T477 1012Q588 1012 688 974T846 862Z" />
<glyph unicode="t" glyph-name="t" horiz-adv-x="696" d="M178 786H6V983H178V1268H420V983H666V786H420V330Q420 255 446 217T549 178Q614 178 653 199L662 6Q590 -20 498 -20Q404 -20 339 7T240 84T192 192T178 328V786Z" />
<glyph unicode="u" glyph-name="u" horiz-adv-x="1191" d="M1044 983V0H811V158H807Q773 80 690 26T502 -29Q410 -29 338 4T224 95T161 221T139 369V983H385V438Q385 176 569 176Q643 176 697 216T775 315T799 442V983H1044Z" />
<glyph unicode="v" glyph-name="v" horiz-adv-x="1050" d="M397 0L0 983H268L526 266H530L791 983H1051L659 0H397Z" />
<glyph unicode="w" glyph-name="w" horiz-adv-x="1646" d="M350 0L8 983H274L479 279H483L694 983H956L1169 279H1174L1382 983H1638L1298 0H1049L825 688H821L600 0H350Z" />
<glyph unicode="x" glyph-name="x" horiz-adv-x="1099" d="M-2 0L397 522L43 983H338L551 678L770 983H1053L700 522L1102 0H803L547 358L289 0H-2Z" />
<glyph unicode="y" glyph-name="y" horiz-adv-x="1050" d="M422 0L0 983H272L547 268H551L795 983H1051L586 -211Q558 -282 528 -330T455 -417T353 -474T213 -492Q150 -492 86 -477L106 -264Q156 -279 199 -279Q249 -279 282 -260T332 -212T373 -125L422 0Z" />
<glyph unicode="z" glyph-name="z" horiz-adv-x="987" d="M70 0V217L600 786H94V983H893V766L360 201H918V0H70Z" />
<glyph unicode="{" glyph-name="braceleft" horiz-adv-x="675" d="M20 500V680Q54 680 83 690T137 735T162 823V1229Q162 1360 237 1429T424 1499H573V1327H461Q407 1327 389 1294T371 1204V819Q371 763 350 718T295 648T230 609T170 592V588Q193 586 216 580T269
556T319 514T356 445T371 348V-25Q371 -80 389 -113T461 -147H573V-319H424Q313 -319 238 -250T162 -49V342Q162 388 149 421T113 470T67 493T20 500Z" />
<glyph unicode="|" glyph-name="bar" horiz-adv-x="454" d="M123 1536H332V-512H123V1536Z" />
<glyph unicode="}" glyph-name="braceright" horiz-adv-x="675" d="M655 500V680Q631 680 609 686T564 707T528 752T514 823V1229Q514 1360 439 1429T252 1499H102V1327H215Q269 1327 287 1294T305 1204V819Q305 763 326 718T381 648T446 609T506 592V588Q483
586 460 580T407 556T357 514T320 445T305 348V-25Q305 -80 287 -113T215 -147H102V-319H252Q363 -319 438 -250T514 -49V342Q514 388 527 421T563 470T608 493T655 500Z" />
<glyph unicode="~" glyph-name="asciitilde" horiz-adv-x="1363" d="M707 725Q787 673 819 661T899 649Q991 649 1059 778L1217 645Q1089 436 903 436Q784 436 655 518Q581 565 542 578T465 592Q374 592 305 463L147 596Q218 713 295 760T461 807Q532 807 586
788T707 725Z" />
</font>
</defs>
</svg>
